<svg xmlns="http://www.w3.org/2000/svg" xmlns:xlink="http://www.w3.org/1999/xlink" width="190" zoomAndPan="magnify" viewBox="0 0 142.5 30.000001" height="40" preserveAspectRatio="xMidYMid meet" version="1.0"><defs><g/></defs><g fill="#8c4bff" fill-opacity="1"><g transform="translate(46.04562, 10.146113)"><g><path d="M 0.460938 -5.605469 L 0.460938 0 L 2.382812 0 L 2.382812 -5.605469 C 2.382812 -6.011719 2.695312 -6.308594 3.0625 -6.308594 L 8.359375 -6.308594 C 8.726562 -6.308594 9.039062 -6.011719 9.039062 -5.605469 L 9.039062 0 L 10.960938 0 L 10.960938 -5.605469 C 10.960938 -7 9.925781 -8.058594 8.359375 -8.058594 L 3.0625 -8.058594 C 1.496094 -8.058594 0.460938 -7 0.460938 -5.605469 Z M 0.460938 -5.605469 "/></g></g></g><g fill="#8c4bff" fill-opacity="1"><g transform="translate(57.466408, 10.146113)"><g><path d="M 3.0625 0 L 10.960938 0 L 10.960938 -1.75 L 3.0625 -1.75 C 2.695312 -1.75 2.382812 -2.050781 2.382812 -2.453125 L 2.382812 -3.167969 L 7.460938 -3.167969 L 7.460938 -4.917969 L 2.382812 -4.917969 L 2.382812 -5.605469 C 2.382812 -6.011719 2.695312 -6.308594 3.0625 -6.308594 L 10.960938 -6.308594 L 10.960938 -8.058594 L 3.0625 -8.058594 C 1.496094 -8.058594 0.460938 -7 0.460938 -5.699219 L 0.460938 -2.359375 C 0.460938 -1.058594 1.496094 0 3.0625 0 Z M 3.0625 0 "/></g></g></g><g fill="#8c4bff" fill-opacity="1"><g transform="translate(68.887197, 10.146113)"><g><path d="M 3.0625 0 L 10.960938 0 L 10.960938 -1.75 L 3.0625 -1.75 C 2.695312 -1.75 2.382812 -2.050781 2.382812 -2.453125 L 2.382812 -3.167969 L 7.460938 -3.167969 L 7.460938 -4.917969 L 2.382812 -4.917969 L 2.382812 -5.605469 C 2.382812 -6.011719 2.695312 -6.308594 3.0625 -6.308594 L 10.960938 -6.308594 L 10.960938 -8.058594 L 3.0625 -8.058594 C 1.496094 -8.058594 0.460938 -7 0.460938 -5.699219 L 0.460938 -2.359375 C 0.460938 -1.058594 1.496094 0 3.0625 0 Z M 3.0625 0 "/></g></g></g><g fill="#8c4bff" fill-opacity="1"><g transform="translate(80.307986, 10.146113)"><g><path d="M 0.460938 0 L 8.359375 0 C 9.925781 0 10.960938 -1.058594 10.960938 -2.453125 L 10.960938 -5.605469 C 10.960938 -7 9.925781 -8.058594 8.359375 -8.058594 L 0.460938 -8.058594 Z M 2.382812 -1.75 L 2.382812 -6.308594 L 8.359375 -6.308594 C 8.726562 -6.308594 9.039062 -6.011719 9.039062 -5.605469 L 9.039062 -2.453125 C 9.039062 -2.050781 8.726562 -1.75 8.359375 -1.75 Z M 2.382812 -1.75 "/></g></g></g><g fill="#8c4bff" fill-opacity="1"><g transform="translate(53.621102, 25.865048)"><g><path d="M 0.875 -5.605469 L 0.34375 0 L 2.269531 0 L 2.566406 -3.167969 L 8.625 -3.167969 L 8.921875 0 L 10.847656 0 L 10.316406 -5.605469 C 10.191406 -7 9.292969 -8.058594 7.726562 -8.058594 L 3.464844 -8.058594 C 1.898438 -8.058594 1 -7 0.875 -5.605469 Z M 2.730469 -4.917969 L 2.796875 -5.605469 C 2.832031 -6.011719 3.097656 -6.308594 3.464844 -6.308594 L 7.726562 -6.308594 C 8.09375 -6.308594 8.359375 -6.011719 8.394531 -5.605469 L 8.460938 -4.917969 Z M 2.730469 -4.917969 "/></g></g></g><g fill="#8c4bff" fill-opacity="1"><g transform="translate(64.811633, 25.865048)"><g><path d="M 0.460938 -8.058594 L 0.460938 0 L 2.210938 0 L 2.210938 -3.167969 L 8.359375 -3.167969 C 9.925781 -3.167969 10.960938 -4.226562 10.960938 -5.605469 C 10.960938 -7 9.925781 -8.058594 8.359375 -8.058594 Z M 2.210938 -4.917969 L 2.210938 -6.308594 L 8.359375 -6.308594 C 8.726562 -6.308594 9.039062 -6.011719 9.039062 -5.605469 C 9.039062 -5.203125 8.726562 -4.917969 8.359375 -4.917969 Z M 2.210938 -4.917969 "/></g></g></g><g fill="#8c4bff" fill-opacity="1"><g transform="translate(76.232422, 25.865048)"><g><path d="M 0.460938 0 L 7.460938 0 L 7.460938 -1.75 L 4.929688 -1.75 L 4.929688 -6.308594 L 7.460938 -6.308594 L 7.460938 -8.058594 L 0.460938 -8.058594 L 0.460938 -6.308594 L 2.992188 -6.308594 L 2.992188 -1.75 L 0.460938 -1.75 Z M 0.460938 0 "/></g></g></g></svg>